# xmcd CD database file
#
# Track frame offsets:
#	150
#	10039
#	21395
#	37327
#
# Disc length: 669 seconds
#
# Revision: 0
# Processed by: cddbd v1.4PL0 Copyright (c) Steve Scherf et al.
# Submitted via: CDex 1.50Beta7
#
DISCID=2c029b04
DTITLE=The Twang - White Wedding Maxi
DYEAR=2003
DGENRE=Country
TTITLE0=Big Big World
TTITLE1=White Wedding
TTITLE2=My Heart Will Go On
TTITLE3=Light My Fire
EXTD=YEAR: 2003
EXTT0=
EXTT1=
EXTT2=
EXTT3=
PLAYORDER=
